<svg version="1.1" id="Capa_1" xmlns="http://www.w3.org/2000/svg" xmlns:xlink="http://www.w3.org/1999/xlink" x="0px" y="0px"
	 viewBox="220 250 1920 630"  >
<path style="fill:#56C2E2;" d="M2132.973,533.176c-1.553-15.165-4.241-30.007-7.978-44.438c-1.245-4.81-2.606-9.575-4.081-14.291
	c-2.95-9.433-6.353-18.669-10.184-27.685c-3.831-9.016-8.087-17.811-12.748-26.359c-4.659-8.549-9.719-16.85-15.155-24.879
	c-19.026-28.102-42.654-52.864-69.78-73.183c-15.5-11.611-32.141-21.771-49.719-30.273c-4.393-2.126-8.846-4.147-13.354-6.063
	c-36.064-15.321-75.664-23.807-117.149-23.807l-331.781,0.001c-80.786,0-154.362,32.238-208.662,84.41H538.883
	c-151.619,0-277.984,113.365-298.678,259.507c20.695,146.141,147.06,259.507,298.678,259.507h962.161
	c-165.941,0-301.712-135.771-301.712-301.712c0-85.157,35.812-162.308,93.052-217.303h540.441
	c151.619,0,277.983,113.365,298.678,259.507c0.783-5.531,1.384-11.117,1.872-16.734c0.199-2.282,0.379-4.568,0.526-6.865
	c0.115-1.803,0.216-3.611,0.3-5.423c0.198-4.373,0.336-8.761,0.336-13.182v-0.002
	C2134.538,553.539,2134.008,543.286,2132.973,533.176z"/>
<path style="fill:#31AFCC;" d="M538.883,346.609h753.499c54.3-52.172,127.876-84.41,208.662-84.41H538.883
	c-82.97,0-158.399,33.943-213.084,88.629c-3.418,3.418-6.755,6.917-10.008,10.493c-13.009,14.307-24.672,29.859-34.781,46.448
	c-2.527,4.147-4.956,8.36-7.287,12.634c-4.659,8.548-8.917,17.343-12.746,26.359c-3.831,9.016-7.234,18.253-10.184,27.685
	c-2.95,9.432-5.447,19.06-7.465,28.857c-4.036,19.594-6.158,39.865-6.158,60.608v0.001c0,4.42,0.136,8.809,0.336,13.182v0
	c0.083,1.811,0.184,3.618,0.299,5.421v0.001c0.147,2.296,0.328,4.583,0.527,6.865c0,0.001,0,0.001,0,0.002
	c0.184,2.111,0.347,4.229,0.573,6.328c0.376,3.478,0.809,6.941,1.297,10.386c0.001,0.005,0.001,0.01,0.003,0.014
	c0,0.002,0,0.003,0,0.004l0,0l0,0C260.899,459.974,387.264,346.609,538.883,346.609z"/>
<path style="fill:#7ECEEF;" d="M1832.825,346.608h-540.441c-57.24,54.995-93.052,132.146-93.052,217.303
	c0,165.941,135.771,301.712,301.712,301.712l331.781,0c151.686,0,278.037-113.48,298.644-259.717
	C2110.683,459.866,1984.372,346.608,1832.825,346.608z"/>
<path style="fill:#FFFFFF;" d="M1863.368,540.52c-9.241,0-16.733,7.491-16.733,16.733h-0.001v112.539h-258.584V557.253
	c0-9.242-7.492-16.733-16.732-16.733c-9.241,0-16.733,7.491-16.733,16.733l-0.001,129.272c0,4.407,1.786,8.717,4.901,11.833
	c3.115,3.116,7.426,4.901,11.832,4.901h292.05c4.405,0,8.717-1.786,11.832-4.902c3.116-3.116,4.9-7.426,4.9-11.832V557.253
	C1880.1,548.011,1872.607,540.52,1863.368,540.52z"/>
<path style="fill:#FFFFFF;" d="M1708.76,644.442c2.101,2.463,5.174,3.879,8.404,3.879l0.181-0.003
	c3.298-0.053,6.398-1.579,8.454-4.157l51.071-64.089c3.227-4.054,3.203-9.806-0.056-13.83c-3.263-4.027-8.879-5.239-13.52-2.925
	l-29.219,14.615V440.32c0-9.242-7.493-16.734-16.734-16.734c-9.243,0-16.734,7.492-16.734,16.734v138.416l-33.4-15.553
	c-4.709-2.19-10.304-0.806-13.448,3.322c-3.145,4.131-2.985,9.895,0.383,13.848L1708.76,644.442z"/>
<text x="38%" y="98%" dominant-baseline="middle" text-anchor="middle" font-size="400" fill="#FFFFFF" font-family="Arial Black, sans-serif">CV</text>
</svg>
